<svg width="350" height="350" viewBox="0 0 350 350" fill="none" xmlns="http://www.w3.org/2000/svg">
<path d="M103.906 10.9375L21.875 43.75L98.4375 207.812L166.394 179.497L103.906 10.9375Z" fill="#0F8CA8"/>
<path d="M114.844 200.977L130.566 221.998C134.549 226.976 136.718 233.16 136.719 239.535V273.438H213.281L232.975 180.469L114.844 169.531V200.977Z" fill="#F4A56E"/>
<path opacity="0.2" d="M94.1349 14.8463V191.406H182.841L166.394 179.497L103.906 10.9375L94.1349 14.8463Z" fill="#232626"/>
<path d="M202.344 40.533V5.46875H103.906V180.469H175L202.344 40.533Z" fill="#F69038"/>
<path d="M98.4375 273.438H109.375V284.375H98.4375V273.438Z" fill="#F69038"/>
<path d="M284.375 16.4062H295.312V27.3438H284.375V16.4062Z" fill="#F69038"/>
<path d="M21.875 98.4375H32.8125V109.375H21.875V98.4375Z" fill="#F69038"/>
<path d="M19.1406 175C26.6914 175 32.8125 168.879 32.8125 161.328C32.8125 153.777 26.6914 147.656 19.1406 147.656C11.5899 147.656 5.46875 153.777 5.46875 161.328C5.46875 168.879 11.5899 175 19.1406 175Z" fill="#F69038"/>
<path d="M276.172 278.906C283.723 278.906 289.844 272.785 289.844 265.234C289.844 257.684 283.723 251.562 276.172 251.562C268.621 251.562 262.5 257.684 262.5 265.234C262.5 272.785 268.621 278.906 276.172 278.906Z" fill="#90E3F5"/>
<path d="M326.855 155.673L344.531 165.34L326.855 175.008L317.188 192.684L307.52 175.008L289.844 165.34L307.52 155.673L317.188 137.996L326.855 155.673Z" fill="#F69038"/>
<path d="M69.8236 230.958L87.5 240.625L69.8236 250.292L60.1562 267.969L50.4889 250.292L32.8125 240.625L50.4889 230.958L60.1562 213.281L69.8236 230.958Z" fill="#90E3F5"/>
<path d="M175.022 79.4831L155.69 98.8151L136.358 79.4831L155.69 60.1511L175.022 79.4831Z" fill="white"/>
<path d="M71.0938 54.6875V71.0938H54.6875V54.6875H71.0938Z" fill="white"/>
<path d="M143.53 32.1384L131.931 43.7376L120.332 32.1384L131.931 20.5392L143.53 32.1384Z" fill="white"/>
<path opacity="0.2" d="M149.251 180.469H175L202.344 40.533V18.1904L111.744 156.114L149.251 180.469Z" fill="#232626"/>
<path d="M242.339 173.663L311.719 71.0938L218.75 16.4062L125.781 153.125L210.72 208.28" fill="#90E3F5"/>
<path d="M227.493 117.578H200.15V90.2344H227.493V117.578Z" fill="white"/>
<path d="M235.156 65.625H218.75V49.2188H235.156V65.625Z" fill="white"/>
<path opacity="0.2" d="M196.875 142.188C196.875 142.188 185.938 164.062 196.875 180.469L218.75 202.344L235.156 185.938L196.875 142.188Z" fill="#232626"/>
<path d="M136.719 350V278.906C136.719 278.906 131.25 218.75 202.344 218.75L224.219 191.406C224.219 191.406 191.406 175 196.875 142.188L247.088 176.95C252.764 180.879 256.743 186.81 258.228 193.551C259.712 200.292 258.592 207.346 255.093 213.296L213.281 273.438V350" fill="#FFBE92"/>
</svg>
